Coordinates
version=1
nRows=15
nColumns=26
inDegrees=yes

Units are S.I. units (second, meters, Newtons, ...)
Angles are in degrees.

endheader
time	pelvis_tilt	pelvis_list	pelvis_rotation	pelvis_tx	pelvis_ty	pelvis_tz	hip_flexion_r	hip_adduction_r	hip_rotation_r	knee_angle_r	knee_angle_r_beta	ankle_angle_r	subtalar_angle_r	mtp_angle_r	hip_flexion_l	hip_adduction_l	hip_rotation_l	knee_angle_l	knee_angle_l_beta	ankle_angle_l	subtalar_angle_l	mtp_angle_l	lumbar_extension	lumbar_bending	lumbar_rotation
    201.45023590	     -7.88131994	      2.92407826	      7.55809094	      0.27190302	      0.85354201	      0.22983228	     42.29855966	     -5.90104134	     -0.22125243	    104.90163509	    104.90163509	     -3.41134371	    -22.50535233	      0.00000000	     11.55294750	      9.39970350	      8.04417820	     40.14546086	     40.14546086	     27.18485649	     -2.51454732	      0.00000000	    -10.06642225	    -10.01059168	      3.13556956
    201.46023590	     -8.09132327	      2.25194266	      6.66575996	      0.27334019	      0.86012111	      0.23070978	     44.46012398	     -4.59612799	      0.03790415	    100.99863623	    100.99863623	     -3.35543267	    -22.91899903	      0.00000000	      7.48900830	      8.18909914	      8.51598419	     35.92662627	     35.92662627	     23.53170623	     -3.34843405	      0.00000000	     -9.00716538	     -9.01671790	      2.35570945
    201.47023590	     -8.37863631	      1.35665122	      5.51958257	      0.27549474	      0.86708335	      0.23208827	     46.15449337	     -2.79847289	      0.21500780	     96.34281432	     96.34281432	     -3.14210049	    -23.29361656	      0.00000000	      3.73044113	      6.57791759	      7.92807840	     31.77723094	     31.77723094	     19.23522802	     -3.24696928	      0.00000000	     -7.70369727	     -7.79191000	      1.89344189
    201.48023590	     -8.60323024	      0.49441576	      4.37447026	      0.27814434	      0.87450377	      0.23314469	     47.23646326	     -1.06217942	      0.31025741	     91.03017357	     91.03017357	     -3.02986578	    -23.73901354	      0.00000000	      0.03293462	      5.20094385	      7.23922540	     27.59212969	     27.59212969	     13.28148038	     -3.99854259	      0.00000000	     -6.47298407	     -6.49548004	      1.29013193
    201.49023590	     -8.76770285	     -0.61057247	      3.06661582	      0.28104087	      0.88197215	      0.23440640	     47.75614508	      1.03942879	      0.31922935	     85.02556568	     85.02556568	     -3.02896631	    -24.16272538	      0.00000000	     -3.23575960	      3.56708211	      5.50599966	     24.11847576	     24.11847576	      7.50770488	     -3.36205344	      0.00000000	     -5.30915254	     -4.80864608	      0.85232909
    201.50023590	     -9.11766760	     -1.45934444	      1.90626249	      0.28376832	      0.88908164	      0.23522881	     48.03087737	      2.72245688	      0.36788274	     78.47793212	     78.47793212	     -3.04495772	    -24.54989119	      0.00000000	     -6.05703605	      2.45934293	      4.04322277	     20.84565704	     20.84565704	      0.34320439	     -3.57932362	      0.00000000	     -4.08336388	     -3.35430704	      0.30796067
    201.51023590	    -10.01600693	     -1.93827115	      0.99667721	      0.28618188	      0.89514131	      0.23588822	     48.48819488	      3.89432928	      0.53278239	     71.51788301	     71.51788301	     -2.69962953	    -24.19717019	      0.00000000	     -7.79514249	      1.72227782	      2.43973348	     18.29296820	     18.29296820	     -5.56142292	     -1.67290458	      0.00000000	     -2.35278367	     -2.37187417	     -0.22921052
    201.52023590	     -9.88376532	     -2.16719214	      0.12993888	      0.28900885	      0.90228633	      0.23606959	     47.21513890	      4.92440120	      0.94557545	     63.86563786	     63.86563786	     -3.12006703	    -24.77879748	      0.00000000	    -11.06530045	      1.72477559	      3.11638039	     14.64411576	     14.64411576	    -14.89820772	     -4.90312232	      0.00000000	     -2.01424142	     -1.52481288	     -0.61539232
    201.53023590	     -9.91149156	     -2.12803442	     -0.36537932	      0.29157155	      0.90854251	      0.23596616	     45.78971703	      5.35176866	      1.09023993	     55.91783613	     55.91783613	     -3.06001713	    -24.22954184	      0.00000000	    -13.18611936	      1.78114013	      2.96519367	     12.93678558	     12.93678558	    -19.91173170	     -4.56312113	      0.00000000	     -1.57030779	     -1.09025303	     -1.24766075
    201.54023590	    -10.18227588	     -1.57272347	     -0.47814603	      0.29354954	      0.91359487	      0.23523422	     44.47850730	      4.94430820	      1.00316569	     47.98473565	     47.98473565	     -2.95735111	    -22.59416395	      0.00000000	    -14.17641091	      2.40540810	      3.68462626	     12.98893549	     12.98893549	    -22.82066511	     -3.97722553	      0.00000000	     -0.89085842	     -1.35516516	     -2.16180434
    201.55023590	     -9.77692469	     -1.10010056	     -0.41930978	      0.29535185	      0.91821544	      0.23433559	     42.21895022	      4.53993595	      0.66652969	     40.01922731	     40.01922731	     -2.88394350	    -20.31301728	      0.00000000	    -15.24903845	      3.09967634	      5.59676602	     14.63892077	     14.63892077	    -24.58401968	     -4.53961295	      0.00000000	     -1.15899108	     -1.52202850	     -2.89966940
    201.56023590	     -9.50652038	     -0.50798796	     -0.28119251	      0.29657581	      0.92111868	      0.23359133	     40.14628206	      4.07850101	      0.40455351	     32.57393038	     32.57393038	     -2.46649927	    -17.26993528	      0.00000000	    -15.51395629	      4.07813204	      8.20435761	     17.91329250	     17.91329250	    -25.12635247	     -5.22331865	      0.00000000	     -1.36227085	     -1.93167133	     -3.40963011
    201.57023590	     -9.03596517	      0.04780198	     -0.03556582	      0.29746334	      0.92289025	      0.23287109	     38.00291563	      3.61748062	      0.09369703	     26.10743703	     26.10743703	     -0.94717071	    -13.06036978	      0.00000000	    -15.48357560	      5.09864990	     10.58740460	     22.36600270	     22.36600270	    -24.16797519	     -4.95995020	      0.00000000	     -1.88227277	     -2.35447171	     -3.62202248
    201.58023590	     -8.67738605	      0.59540673	      0.12287377	      0.29786696	      0.92327849	      0.23259486	     36.22499872	      3.28547364	      0.14746468	     20.79445446	     20.79445446	      0.56170934	     -8.86349124	      0.00000000	    -14.74027715	      6.09486752	     11.87298477	     27.90552127	     27.90552127	    -22.13453371	     -3.86584092	      0.00000000	     -2.34915284	     -2.83921883	     -3.49739210
    201.59023590	     -8.35485264	      0.99906172	      0.21421939	      0.29783699	      0.92250994	      0.23253294	     34.76301480	      3.11427323	      0.39531164	     16.78673117	     16.78673117	      1.88675334	     -5.23772438	      0.00000000	    -13.50041287	      6.90042548	     12.23529983	     34.15520517	     34.15520517	    -20.37642545	     -2.69626848	      0.00000000	     -2.85379791	     -3.15500641	     -2.94665858
